<svg width="775" height="549" viewBox="0 0 775 549" fill="none" xmlns="http://www.w3.org/2000/svg">
<g clip-path="url(#clip0_4_1895)">
<path d="M2.15314 87.8588L1.83443 87.8588L1.78131 87.487" stroke="white" stroke-miterlimit="10" stroke-linecap="round"/>
<path d="M1.78131 83.0251L1.83443 33.253" stroke="white" stroke-miterlimit="10" stroke-linecap="round" stroke-dasharray="0.99 0.99"/>
<path d="M1.83443 31.022L1.78131 30.6502L2.20626 30.6502" stroke="white" stroke-miterlimit="10" stroke-linecap="round"/>
<path d="M6.66821 30.6502L56.3872 30.6502" stroke="white" stroke-miterlimit="10" stroke-linecap="round" stroke-dasharray="0.99 0.99"/>
<path d="M58.6181 30.6502L59.0431 30.6502L58.99 31.022" stroke="white" stroke-miterlimit="10" stroke-linecap="round"/>
<path d="M58.99 35.4839L59.0431 85.256" stroke="white" stroke-miterlimit="10" stroke-linecap="round" stroke-dasharray="0.99 0.99"/>
<path d="M59.0431 87.487L59.0431 87.9119L58.6713 87.8588" stroke="white" stroke-miterlimit="10" stroke-linecap="round"/>
<path d="M54.2093 87.8588L4.38411 87.8588" stroke="white" stroke-miterlimit="10" stroke-linecap="round" stroke-dasharray="0.99 0.99"/>
<path d="M59.4149 145.121L59.0431 145.067L59.0431 144.749" stroke="white" stroke-miterlimit="10" stroke-linecap="round"/>
<path d="M59.0431 140.287L59.0431 90.4617" stroke="white" stroke-miterlimit="10" stroke-linecap="round" stroke-dasharray="0.99 0.99"/>
<path d="M59.0431 88.2306L59.0431 87.9119L59.4149 87.8588" stroke="white" stroke-miterlimit="10" stroke-linecap="round"/>
<path d="M63.8769 87.8589L113.649 87.912" stroke="white" stroke-miterlimit="10" stroke-linecap="round" stroke-dasharray="0.99 0.99"/>
<path d="M115.88 87.9119L116.252 87.8588L116.252 88.2838" stroke="white" stroke-miterlimit="10" stroke-linecap="round"/>
<path d="M116.252 92.7457L116.252 142.465" stroke="white" stroke-miterlimit="10" stroke-linecap="round" stroke-dasharray="0.99 0.99"/>
<path d="M116.252 144.696L116.252 145.121L115.88 145.068" stroke="white" stroke-miterlimit="10" stroke-linecap="round"/>
<path d="M111.418 145.067L61.6459 145.121" stroke="white" stroke-miterlimit="10" stroke-linecap="round" stroke-dasharray="0.99 0.99"/>
<path d="M116.624 202.329L116.305 202.329L116.252 201.957" stroke="white" stroke-miterlimit="10" stroke-linecap="round"/>
<path d="M116.252 197.496L116.305 147.723" stroke="white" stroke-miterlimit="10" stroke-linecap="round" stroke-dasharray="0.99 0.99"/>
<path d="M116.305 145.492L116.252 145.121L116.677 145.121" stroke="white" stroke-miterlimit="10" stroke-linecap="round"/>
<path d="M121.139 145.121L170.858 145.121" stroke="white" stroke-miterlimit="10" stroke-linecap="round" stroke-dasharray="0.99 0.99"/>
<path d="M173.089 145.121L173.514 145.121L173.46 145.492" stroke="white" stroke-miterlimit="10" stroke-linecap="round"/>
<path d="M173.46 149.954L173.514 199.726" stroke="white" stroke-miterlimit="10" stroke-linecap="round" stroke-dasharray="0.99 0.99"/>
<path d="M173.514 201.957L173.46 202.329L173.142 202.329" stroke="white" stroke-miterlimit="10" stroke-linecap="round"/>
<path d="M168.68 202.329L118.855 202.329" stroke="white" stroke-miterlimit="10" stroke-linecap="round" stroke-dasharray="0.99 0.99"/>
<path d="M173.885 259.591L173.514 259.538L173.514 259.219" stroke="white" stroke-miterlimit="10" stroke-linecap="round"/>
<path d="M173.514 254.757L173.514 204.932" stroke="white" stroke-miterlimit="10" stroke-linecap="round" stroke-dasharray="0.99 0.99"/>
<path d="M173.514 202.701L173.46 202.329L173.885 202.329" stroke="white" stroke-miterlimit="10" stroke-linecap="round"/>
<path d="M178.347 202.329L228.119 202.382" stroke="white" stroke-miterlimit="10" stroke-linecap="round" stroke-dasharray="0.99 0.99"/>
<path d="M230.35 202.382L230.722 202.329L230.722 202.754" stroke="white" stroke-miterlimit="10" stroke-linecap="round"/>
<path d="M230.722 207.216L230.722 256.935" stroke="white" stroke-miterlimit="10" stroke-linecap="round" stroke-dasharray="0.99 0.99"/>
<path d="M230.722 259.166L230.722 259.591L230.35 259.538" stroke="white" stroke-miterlimit="10" stroke-linecap="round"/>
<path d="M225.888 259.538L176.116 259.591" stroke="white" stroke-miterlimit="10" stroke-linecap="round" stroke-dasharray="0.99 0.99"/>
<path d="M231.094 316.8L230.775 316.8L230.722 316.428" stroke="white" stroke-miterlimit="10" stroke-linecap="round"/>
<path d="M230.722 311.966L230.775 262.194" stroke="white" stroke-miterlimit="10" stroke-linecap="round" stroke-dasharray="0.99 0.99"/>
<path d="M230.775 259.963L230.722 259.591L231.147 259.591" stroke="white" stroke-miterlimit="10" stroke-linecap="round"/>
<path d="M235.609 259.591L285.328 259.591" stroke="white" stroke-miterlimit="10" stroke-linecap="round" stroke-dasharray="0.99 0.99"/>
<path d="M287.559 259.591L287.984 259.591L287.931 259.963" stroke="white" stroke-miterlimit="10" stroke-linecap="round"/>
<path d="M287.931 264.425L287.984 314.197" stroke="white" stroke-miterlimit="10" stroke-linecap="round" stroke-dasharray="0.99 0.99"/>
<path d="M287.984 316.428L287.984 316.853L287.612 316.8" stroke="white" stroke-miterlimit="10" stroke-linecap="round"/>
<path d="M283.15 316.8L233.325 316.8" stroke="white" stroke-miterlimit="10" stroke-linecap="round" stroke-dasharray="0.99 0.99"/>
<path d="M288.356 374.061L287.984 374.008L287.984 373.69" stroke="white" stroke-miterlimit="10" stroke-linecap="round"/>
<path d="M287.984 369.228L287.984 319.403" stroke="white" stroke-miterlimit="10" stroke-linecap="round" stroke-dasharray="0.99 0.99"/>
<path d="M287.984 317.172L287.984 316.853L288.356 316.8" stroke="white" stroke-miterlimit="10" stroke-linecap="round"/>
<path d="M292.818 316.8L342.59 316.853" stroke="white" stroke-miterlimit="10" stroke-linecap="round" stroke-dasharray="0.99 0.99"/>
<path d="M344.821 316.853L345.193 316.8L345.193 317.225" stroke="white" stroke-miterlimit="10" stroke-linecap="round"/>
<path d="M345.193 321.687L345.193 371.406" stroke="white" stroke-miterlimit="10" stroke-linecap="round" stroke-dasharray="0.99 0.99"/>
<path d="M345.193 373.637L345.193 374.061L344.821 374.008" stroke="white" stroke-miterlimit="10" stroke-linecap="round"/>
<path d="M340.359 374.008L290.587 374.061" stroke="white" stroke-miterlimit="10" stroke-linecap="round" stroke-dasharray="0.99 0.99"/>
<path d="M345.564 431.27L345.246 431.27L345.193 430.898" stroke="white" stroke-miterlimit="10" stroke-linecap="round"/>
<path d="M345.193 426.436L345.246 376.664" stroke="white" stroke-miterlimit="10" stroke-linecap="round" stroke-dasharray="0.99 0.99"/>
<path d="M345.246 374.433L345.193 374.062L345.618 374.062" stroke="white" stroke-miterlimit="10" stroke-linecap="round"/>
<path d="M350.08 374.061L399.798 374.062" stroke="white" stroke-miterlimit="10" stroke-linecap="round" stroke-dasharray="0.99 0.99"/>
<path d="M402.029 374.062L402.454 374.062L402.401 374.433" stroke="white" stroke-miterlimit="10" stroke-linecap="round"/>
<path d="M402.401 378.895L402.454 428.667" stroke="white" stroke-miterlimit="10" stroke-linecap="round" stroke-dasharray="0.99 0.99"/>
<path d="M402.454 430.898L402.401 431.27L402.083 431.27" stroke="white" stroke-miterlimit="10" stroke-linecap="round"/>
<path d="M397.621 431.27L347.795 431.27" stroke="white" stroke-miterlimit="10" stroke-linecap="round" stroke-dasharray="0.99 0.99"/>
<path d="M402.826 488.532L402.454 488.479L402.454 488.16" stroke="white" stroke-miterlimit="10" stroke-linecap="round"/>
<path d="M402.454 483.698L402.454 433.873" stroke="white" stroke-miterlimit="10" stroke-linecap="round" stroke-dasharray="0.99 0.99"/>
<path d="M402.454 431.642L402.401 431.27L402.826 431.27" stroke="white" stroke-miterlimit="10" stroke-linecap="round"/>
<path d="M407.288 431.27L457.06 431.323" stroke="white" stroke-miterlimit="10" stroke-linecap="round" stroke-dasharray="0.99 0.99"/>
<path d="M459.291 431.323L459.663 431.27L459.663 431.695" stroke="white" stroke-miterlimit="10" stroke-linecap="round"/>
<path d="M459.663 436.157L459.663 485.876" stroke="white" stroke-miterlimit="10" stroke-linecap="round" stroke-dasharray="0.99 0.99"/>
<path d="M459.663 488.107L459.663 488.532L459.291 488.479" stroke="white" stroke-miterlimit="10" stroke-linecap="round"/>
<path d="M454.829 488.479L405.057 488.532" stroke="white" stroke-miterlimit="10" stroke-linecap="round" stroke-dasharray="0.99 0.99"/>
<path d="M460.035 545.741L459.716 545.741L459.663 545.369" stroke="white" stroke-miterlimit="10" stroke-linecap="round"/>
<path d="M459.663 540.907L459.716 491.135" stroke="white" stroke-miterlimit="10" stroke-linecap="round" stroke-dasharray="0.99 0.99"/>
<path d="M459.716 488.904L459.663 488.532L460.088 488.532" stroke="white" stroke-miterlimit="10" stroke-linecap="round"/>
<path d="M464.55 488.532L514.269 488.532" stroke="white" stroke-miterlimit="10" stroke-linecap="round" stroke-dasharray="0.99 0.99"/>
<path d="M516.5 488.532L516.925 488.532L516.872 488.904" stroke="white" stroke-miterlimit="10" stroke-linecap="round"/>
<path d="M516.872 493.366L516.925 543.138" stroke="white" stroke-miterlimit="10" stroke-linecap="round" stroke-dasharray="0.99 0.99"/>
<path d="M516.925 545.369L516.925 545.794L516.553 545.741" stroke="white" stroke-miterlimit="10" stroke-linecap="round"/>
<path d="M512.091 545.741L462.266 545.741" stroke="white" stroke-miterlimit="10" stroke-linecap="round" stroke-dasharray="0.99 0.99"/>
<path d="M516.925 598.169L516.925 548.344" stroke="white" stroke-miterlimit="10" stroke-linecap="round" stroke-dasharray="0.99 0.99"/>
<path d="M516.925 546.112L516.925 545.794L517.297 545.741" stroke="white" stroke-miterlimit="10" stroke-linecap="round"/>
<path d="M521.759 545.741L571.531 545.794" stroke="white" stroke-miterlimit="10" stroke-linecap="round" stroke-dasharray="0.99 0.99"/>
<path d="M573.762 545.794L574.133 545.741L574.134 546.166" stroke="white" stroke-miterlimit="10" stroke-linecap="round"/>
<path d="M1.40948 87.8588H1.83443L1.78131 88.2307" stroke="white" stroke-miterlimit="10" stroke-linecap="round"/>
<path d="M1.78131 92.6926L1.78131 142.518" stroke="white" stroke-miterlimit="10" stroke-linecap="round" stroke-dasharray="0.99 0.99"/>
<path d="M1.78131 144.749L1.83443 145.121L1.40948 145.121" stroke="white" stroke-miterlimit="10" stroke-linecap="round"/>
<path d="M2.20626 202.329H1.78132L1.83443 201.957" stroke="white" stroke-miterlimit="10" stroke-linecap="round"/>
<path d="M1.83444 197.496L1.78131 147.723" stroke="white" stroke-miterlimit="10" stroke-linecap="round" stroke-dasharray="0.99 0.99"/>
<path d="M1.78131 145.492L1.83443 145.121L2.15314 145.121" stroke="white" stroke-miterlimit="10" stroke-linecap="round"/>
<path d="M6.6151 145.121L56.4403 145.121" stroke="white" stroke-miterlimit="10" stroke-linecap="round" stroke-dasharray="0.99 0.99"/>
<path d="M58.6713 145.121L59.0431 145.067L59.0431 145.492" stroke="white" stroke-miterlimit="10" stroke-linecap="round"/>
<path d="M59.0431 149.954L58.99 199.726" stroke="white" stroke-miterlimit="10" stroke-linecap="round" stroke-dasharray="0.99 0.99"/>
<path d="M58.99 201.957L59.0431 202.329L58.6181 202.329" stroke="white" stroke-miterlimit="10" stroke-linecap="round"/>
<path d="M54.1562 202.329L4.43724 202.329" stroke="white" stroke-miterlimit="10" stroke-linecap="round" stroke-dasharray="0.99 0.99"/>
<path d="M59.4149 259.538L59.0431 259.591L59.0431 259.166" stroke="white" stroke-miterlimit="10" stroke-linecap="round"/>
<path d="M59.0431 254.704V204.985" stroke="white" stroke-miterlimit="10" stroke-linecap="round" stroke-dasharray="0.99 0.99"/>
<path d="M59.0431 202.754L59.0431 202.329L59.4149 202.382" stroke="white" stroke-miterlimit="10" stroke-linecap="round"/>
<path d="M63.8769 202.382L113.649 202.329" stroke="white" stroke-miterlimit="10" stroke-linecap="round" stroke-dasharray="0.99 0.99"/>
<path d="M115.88 202.329L116.305 202.329L116.252 202.701" stroke="white" stroke-miterlimit="10" stroke-linecap="round"/>
<path d="M116.252 207.163L116.252 256.988" stroke="white" stroke-miterlimit="10" stroke-linecap="round" stroke-dasharray="0.99 0.99"/>
<path d="M116.252 259.219L116.252 259.538L115.88 259.591" stroke="white" stroke-miterlimit="10" stroke-linecap="round"/>
<path d="M111.418 259.591L61.6459 259.538" stroke="white" stroke-miterlimit="10" stroke-linecap="round" stroke-dasharray="0.99 0.99"/>
<path d="M116.677 316.8L116.252 316.8L116.305 316.428" stroke="white" stroke-miterlimit="10" stroke-linecap="round"/>
<path d="M116.305 311.966L116.252 262.194" stroke="white" stroke-miterlimit="10" stroke-linecap="round" stroke-dasharray="0.99 0.99"/>
<path d="M116.252 259.963L116.252 259.538L116.624 259.591" stroke="white" stroke-miterlimit="10" stroke-linecap="round"/>
<path d="M121.086 259.591L170.911 259.591" stroke="white" stroke-miterlimit="10" stroke-linecap="round" stroke-dasharray="0.99 0.99"/>
<path d="M173.142 259.591L173.514 259.538L173.514 259.963" stroke="white" stroke-miterlimit="10" stroke-linecap="round"/>
<path d="M173.514 264.425L173.46 314.197" stroke="white" stroke-miterlimit="10" stroke-linecap="round" stroke-dasharray="0.99 0.99"/>
<path d="M173.46 316.428L173.514 316.8L173.089 316.8" stroke="white" stroke-miterlimit="10" stroke-linecap="round"/>
<path d="M168.627 316.8L118.908 316.8" stroke="white" stroke-miterlimit="10" stroke-linecap="round" stroke-dasharray="0.99 0.99"/>
<path d="M173.885 374.008L173.514 374.061L173.514 373.637" stroke="white" stroke-miterlimit="10" stroke-linecap="round"/>
<path d="M173.514 369.175V319.456" stroke="white" stroke-miterlimit="10" stroke-linecap="round" stroke-dasharray="0.99 0.99"/>
<path d="M173.514 317.225L173.514 316.8L173.885 316.853" stroke="white" stroke-miterlimit="10" stroke-linecap="round"/>
<path d="M178.347 316.853L228.119 316.8" stroke="white" stroke-miterlimit="10" stroke-linecap="round" stroke-dasharray="0.99 0.99"/>
<path d="M230.35 316.8L230.775 316.8L230.722 317.172" stroke="white" stroke-miterlimit="10" stroke-linecap="round"/>
<path d="M230.722 321.633L230.722 371.459" stroke="white" stroke-miterlimit="10" stroke-linecap="round" stroke-dasharray="0.99 0.99"/>
<path d="M230.722 373.69L230.775 374.062L230.35 374.062" stroke="white" stroke-miterlimit="10" stroke-linecap="round"/>
<path d="M225.888 374.061L176.116 374.008" stroke="white" stroke-miterlimit="10" stroke-linecap="round" stroke-dasharray="0.99 0.99"/>
<path d="M231.147 431.27L230.722 431.27L230.775 430.898" stroke="white" stroke-miterlimit="10" stroke-linecap="round"/>
<path d="M230.775 426.436L230.722 376.664" stroke="white" stroke-miterlimit="10" stroke-linecap="round" stroke-dasharray="0.99 0.99"/>
<path d="M230.722 374.433L230.775 374.062L231.094 374.062" stroke="white" stroke-miterlimit="10" stroke-linecap="round"/>
<path d="M235.556 374.062L285.381 374.062" stroke="white" stroke-miterlimit="10" stroke-linecap="round" stroke-dasharray="0.99 0.99"/>
<path d="M287.612 374.062L287.984 374.008L287.984 374.433" stroke="white" stroke-miterlimit="10" stroke-linecap="round"/>
<path d="M287.984 378.895L287.931 428.667" stroke="white" stroke-miterlimit="10" stroke-linecap="round" stroke-dasharray="0.99 0.99"/>
<path d="M287.931 430.898L287.984 431.27L287.559 431.27" stroke="white" stroke-miterlimit="10" stroke-linecap="round"/>
<path d="M283.097 431.27L233.378 431.27" stroke="white" stroke-miterlimit="10" stroke-linecap="round" stroke-dasharray="0.99 0.99"/>
<path d="M288.356 488.479L287.984 488.532L287.984 488.107" stroke="white" stroke-miterlimit="10" stroke-linecap="round"/>
<path d="M287.984 483.645V433.926" stroke="white" stroke-miterlimit="10" stroke-linecap="round" stroke-dasharray="0.99 0.99"/>
<path d="M287.984 431.695L287.984 431.27L288.356 431.323" stroke="white" stroke-miterlimit="10" stroke-linecap="round"/>
<path d="M292.818 431.323L342.59 431.27" stroke="white" stroke-miterlimit="10" stroke-linecap="round" stroke-dasharray="0.99 0.99"/>
<path d="M344.821 431.27L345.246 431.27L345.193 431.642" stroke="white" stroke-miterlimit="10" stroke-linecap="round"/>
<path d="M345.193 436.104L345.193 485.929" stroke="white" stroke-miterlimit="10" stroke-linecap="round" stroke-dasharray="0.99 0.99"/>
<path d="M345.193 488.16L345.193 488.479L344.821 488.532" stroke="white" stroke-miterlimit="10" stroke-linecap="round"/>
<path d="M340.359 488.532L290.587 488.479" stroke="white" stroke-miterlimit="10" stroke-linecap="round" stroke-dasharray="0.99 0.99"/>
<path d="M345.618 545.741L345.193 545.741L345.246 545.369" stroke="white" stroke-miterlimit="10" stroke-linecap="round"/>
<path d="M345.246 540.907L345.193 491.135" stroke="white" stroke-miterlimit="10" stroke-linecap="round" stroke-dasharray="0.99 0.99"/>
<path d="M345.193 488.904L345.193 488.479L345.564 488.532" stroke="white" stroke-miterlimit="10" stroke-linecap="round"/>
<path d="M350.026 488.532L399.852 488.532" stroke="white" stroke-miterlimit="10" stroke-linecap="round" stroke-dasharray="0.99 0.99"/>
<path d="M402.083 488.532L402.454 488.479L402.454 488.904" stroke="white" stroke-miterlimit="10" stroke-linecap="round"/>
<path d="M402.454 493.366L402.401 543.138" stroke="white" stroke-miterlimit="10" stroke-linecap="round" stroke-dasharray="0.99 0.99"/>
<path d="M402.401 545.369L402.454 545.741L402.029 545.741" stroke="white" stroke-miterlimit="10" stroke-linecap="round"/>
<path d="M397.568 545.741L347.849 545.741" stroke="white" stroke-miterlimit="10" stroke-linecap="round" stroke-dasharray="0.99 0.99"/>
<path d="M402.454 598.116V548.397" stroke="white" stroke-miterlimit="10" stroke-linecap="round" stroke-dasharray="0.99 0.99"/>
<path d="M402.454 546.166L402.454 545.741L402.826 545.794" stroke="white" stroke-miterlimit="10" stroke-linecap="round"/>
<path d="M407.288 545.794L457.06 545.741" stroke="white" stroke-miterlimit="10" stroke-linecap="round" stroke-dasharray="0.99 0.99"/>
<path d="M459.291 545.741L459.716 545.741L459.663 546.113" stroke="white" stroke-miterlimit="10" stroke-linecap="round"/>
<path d="M1.40949 202.382L1.78132 202.329V202.754" stroke="white" stroke-miterlimit="10" stroke-linecap="round"/>
<path d="M1.83443 207.163L1.78132 256.935" stroke="white" stroke-miterlimit="10" stroke-linecap="round" stroke-dasharray="0.99 0.99"/>
<path d="M1.78132 259.166L1.78132 259.591L1.40948 259.538" stroke="white" stroke-miterlimit="10" stroke-linecap="round"/>
<path d="M2.15315 316.8L1.83442 316.8L1.78132 316.428" stroke="white" stroke-miterlimit="10" stroke-linecap="round"/>
<path d="M1.7813 311.966L1.83444 262.194" stroke="white" stroke-miterlimit="10" stroke-linecap="round" stroke-dasharray="0.99 0.99"/>
<path d="M1.83442 259.963L1.78132 259.591L2.20626 259.591" stroke="white" stroke-miterlimit="10" stroke-linecap="round"/>
<path d="M6.66823 259.591H56.3872" stroke="white" stroke-miterlimit="10" stroke-linecap="round" stroke-dasharray="0.99 0.99"/>
<path d="M58.6181 259.591L59.0431 259.591L58.99 259.963" stroke="white" stroke-miterlimit="10" stroke-linecap="round"/>
<path d="M59.0431 264.372L59.0431 314.197" stroke="white" stroke-miterlimit="10" stroke-linecap="round" stroke-dasharray="0.99 0.99"/>
<path d="M59.0431 316.428L58.99 316.8H58.6713" stroke="white" stroke-miterlimit="10" stroke-linecap="round"/>
<path d="M54.2093 316.8L4.38412 316.8" stroke="white" stroke-miterlimit="10" stroke-linecap="round" stroke-dasharray="0.99 0.99"/>
<path d="M59.4149 374.061L59.0431 374.008L59.0431 373.69" stroke="white" stroke-miterlimit="10" stroke-linecap="round"/>
<path d="M59.0431 369.228L59.0431 319.403" stroke="white" stroke-miterlimit="10" stroke-linecap="round" stroke-dasharray="0.99 0.99"/>
<path d="M59.0431 317.172L58.99 316.8L59.4149 316.8" stroke="white" stroke-miterlimit="10" stroke-linecap="round"/>
<path d="M63.8769 316.8L113.649 316.853" stroke="white" stroke-miterlimit="10" stroke-linecap="round" stroke-dasharray="0.99 0.99"/>
<path d="M115.88 316.853L116.252 316.8L116.252 317.225" stroke="white" stroke-miterlimit="10" stroke-linecap="round"/>
<path d="M116.305 321.633L116.252 371.406" stroke="white" stroke-miterlimit="10" stroke-linecap="round" stroke-dasharray="0.99 0.99"/>
<path d="M116.252 373.637L116.252 374.061L115.88 374.008" stroke="white" stroke-miterlimit="10" stroke-linecap="round"/>
<path d="M111.418 374.008L61.6459 374.062" stroke="white" stroke-miterlimit="10" stroke-linecap="round" stroke-dasharray="0.99 0.99"/>
<path d="M116.624 431.27L116.305 431.27L116.252 430.898" stroke="white" stroke-miterlimit="10" stroke-linecap="round"/>
<path d="M116.252 426.436L116.305 376.664" stroke="white" stroke-miterlimit="10" stroke-linecap="round" stroke-dasharray="0.99 0.99"/>
<path d="M116.305 374.433L116.252 374.061L116.677 374.061" stroke="white" stroke-miterlimit="10" stroke-linecap="round"/>
<path d="M121.139 374.061H170.858" stroke="white" stroke-miterlimit="10" stroke-linecap="round" stroke-dasharray="0.99 0.99"/>
<path d="M173.089 374.061L173.514 374.061L173.46 374.433" stroke="white" stroke-miterlimit="10" stroke-linecap="round"/>
<path d="M173.514 378.842L173.514 428.667" stroke="white" stroke-miterlimit="10" stroke-linecap="round" stroke-dasharray="0.99 0.99"/>
<path d="M173.514 430.898L173.514 431.323L173.142 431.27" stroke="white" stroke-miterlimit="10" stroke-linecap="round"/>
<path d="M168.68 431.27L118.855 431.27" stroke="white" stroke-miterlimit="10" stroke-linecap="round" stroke-dasharray="0.99 0.99"/>
<path d="M173.885 488.532L173.514 488.479L173.514 488.16" stroke="white" stroke-miterlimit="10" stroke-linecap="round"/>
<path d="M173.514 483.698L173.514 433.873" stroke="white" stroke-miterlimit="10" stroke-linecap="round" stroke-dasharray="0.99 0.99"/>
<path d="M173.514 431.642L173.514 431.323L173.885 431.27" stroke="white" stroke-miterlimit="10" stroke-linecap="round"/>
<path d="M178.347 431.27L228.119 431.323" stroke="white" stroke-miterlimit="10" stroke-linecap="round" stroke-dasharray="0.99 0.99"/>
<path d="M230.35 431.323L230.722 431.27L230.722 431.695" stroke="white" stroke-miterlimit="10" stroke-linecap="round"/>
<path d="M230.775 436.104L230.722 485.876" stroke="white" stroke-miterlimit="10" stroke-linecap="round" stroke-dasharray="0.99 0.99"/>
<path d="M230.722 488.107L230.722 488.532L230.35 488.479" stroke="white" stroke-miterlimit="10" stroke-linecap="round"/>
<path d="M225.888 488.479L176.116 488.532" stroke="white" stroke-miterlimit="10" stroke-linecap="round" stroke-dasharray="0.99 0.99"/>
<path d="M231.094 545.741L230.775 545.741L230.722 545.369" stroke="white" stroke-miterlimit="10" stroke-linecap="round"/>
<path d="M230.722 540.907L230.775 491.135" stroke="white" stroke-miterlimit="10" stroke-linecap="round" stroke-dasharray="0.99 0.99"/>
<path d="M230.775 488.904L230.722 488.532L231.147 488.532" stroke="white" stroke-miterlimit="10" stroke-linecap="round"/>
<path d="M235.609 488.532L285.328 488.532" stroke="white" stroke-miterlimit="10" stroke-linecap="round" stroke-dasharray="0.99 0.99"/>
<path d="M287.559 488.532L287.984 488.532L287.931 488.904" stroke="white" stroke-miterlimit="10" stroke-linecap="round"/>
<path d="M287.984 493.313L287.984 543.138" stroke="white" stroke-miterlimit="10" stroke-linecap="round" stroke-dasharray="0.99 0.99"/>
<path d="M287.984 545.369L287.931 545.741L287.612 545.741" stroke="white" stroke-miterlimit="10" stroke-linecap="round"/>
<path d="M283.15 545.741L233.325 545.741" stroke="white" stroke-miterlimit="10" stroke-linecap="round" stroke-dasharray="0.99 0.99"/>
<path d="M287.984 598.169L287.984 548.344" stroke="white" stroke-miterlimit="10" stroke-linecap="round" stroke-dasharray="0.99 0.99"/>
<path d="M287.984 546.112L287.931 545.741L288.356 545.741" stroke="white" stroke-miterlimit="10" stroke-linecap="round"/>
<path d="M292.818 545.741L342.59 545.794" stroke="white" stroke-miterlimit="10" stroke-linecap="round" stroke-dasharray="0.99 0.99"/>
<path d="M344.821 545.794L345.193 545.741L345.193 546.166" stroke="white" stroke-miterlimit="10" stroke-linecap="round"/>
<path d="M1.40948 316.8L1.83442 316.8L1.78132 317.172" stroke="white" stroke-miterlimit="10" stroke-linecap="round"/>
<path d="M1.78132 321.633L1.78131 371.459" stroke="white" stroke-miterlimit="10" stroke-linecap="round" stroke-dasharray="0.99 0.99"/>
<path d="M1.78132 373.69V374.008L1.40948 374.061" stroke="white" stroke-miterlimit="10" stroke-linecap="round"/>
<path d="M2.20626 431.27L1.78132 431.27L1.83442 430.898" stroke="white" stroke-miterlimit="10" stroke-linecap="round"/>
<path d="M1.83444 426.436L1.78132 376.664" stroke="white" stroke-miterlimit="10" stroke-linecap="round" stroke-dasharray="0.99 0.99"/>
<path d="M1.78132 374.433L1.78132 374.008L2.15315 374.061" stroke="white" stroke-miterlimit="10" stroke-linecap="round"/>
<path d="M6.61509 374.062L56.4403 374.062" stroke="white" stroke-miterlimit="10" stroke-linecap="round" stroke-dasharray="0.99 0.99"/>
<path d="M58.6713 374.061L59.0431 374.008L59.0431 374.433" stroke="white" stroke-miterlimit="10" stroke-linecap="round"/>
<path d="M59.0431 378.895L58.99 428.667" stroke="white" stroke-miterlimit="10" stroke-linecap="round" stroke-dasharray="0.99 0.99"/>
<path d="M58.99 430.898L59.0431 431.27L58.6181 431.27" stroke="white" stroke-miterlimit="10" stroke-linecap="round"/>
<path d="M54.1562 431.27H4.43724" stroke="white" stroke-miterlimit="10" stroke-linecap="round" stroke-dasharray="0.99 0.99"/>
<path d="M59.4149 488.479L59.0431 488.532L59.0431 488.107" stroke="white" stroke-miterlimit="10" stroke-linecap="round"/>
<path d="M59.0431 483.645V433.926" stroke="white" stroke-miterlimit="10" stroke-linecap="round" stroke-dasharray="0.99 0.99"/>
<path d="M59.0431 431.695L59.0431 431.27L59.4149 431.323" stroke="white" stroke-miterlimit="10" stroke-linecap="round"/>
<path d="M63.8769 431.323L113.649 431.27" stroke="white" stroke-miterlimit="10" stroke-linecap="round" stroke-dasharray="0.99 0.99"/>
<path d="M115.88 431.27L116.305 431.27L116.252 431.642" stroke="white" stroke-miterlimit="10" stroke-linecap="round"/>
<path d="M116.252 436.104L116.252 485.929" stroke="white" stroke-miterlimit="10" stroke-linecap="round" stroke-dasharray="0.99 0.99"/>
<path d="M116.252 488.16L116.305 488.532L115.88 488.532" stroke="white" stroke-miterlimit="10" stroke-linecap="round"/>
<path d="M111.418 488.532L61.6459 488.479" stroke="white" stroke-miterlimit="10" stroke-linecap="round" stroke-dasharray="0.99 0.99"/>
<path d="M116.677 545.741L116.252 545.741L116.305 545.369" stroke="white" stroke-miterlimit="10" stroke-linecap="round"/>
<path d="M116.305 540.907L116.252 491.135" stroke="white" stroke-miterlimit="10" stroke-linecap="round" stroke-dasharray="0.99 0.99"/>
<path d="M116.252 488.904L116.305 488.532L116.624 488.532" stroke="white" stroke-miterlimit="10" stroke-linecap="round"/>
<path d="M121.086 488.532L170.911 488.532" stroke="white" stroke-miterlimit="10" stroke-linecap="round" stroke-dasharray="0.99 0.99"/>
<path d="M173.142 488.532L173.514 488.479L173.514 488.904" stroke="white" stroke-miterlimit="10" stroke-linecap="round"/>
<path d="M173.514 493.366L173.46 543.138" stroke="white" stroke-miterlimit="10" stroke-linecap="round" stroke-dasharray="0.99 0.99"/>
<path d="M173.46 545.369L173.514 545.741L173.089 545.741" stroke="white" stroke-miterlimit="10" stroke-linecap="round"/>
<path d="M168.627 545.741L118.908 545.741" stroke="white" stroke-miterlimit="10" stroke-linecap="round" stroke-dasharray="0.99 0.99"/>
<path d="M173.514 598.115V548.396" stroke="white" stroke-miterlimit="10" stroke-linecap="round" stroke-dasharray="0.99 0.99"/>
<path d="M173.514 546.166L173.514 545.741L173.885 545.794" stroke="white" stroke-miterlimit="10" stroke-linecap="round"/>
<path d="M178.347 545.794L228.119 545.741" stroke="white" stroke-miterlimit="10" stroke-linecap="round" stroke-dasharray="0.99 0.99"/>
<path d="M230.35 545.741L230.775 545.741L230.722 546.113" stroke="white" stroke-miterlimit="10" stroke-linecap="round"/>
<path d="M1.40948 431.323L1.78132 431.27L1.78132 431.695" stroke="white" stroke-miterlimit="10" stroke-linecap="round"/>
<path d="M1.83444 436.104L1.78132 485.876" stroke="white" stroke-miterlimit="10" stroke-linecap="round" stroke-dasharray="0.99 0.99"/>
<path d="M1.78132 488.107L1.78132 488.532L1.40948 488.479" stroke="white" stroke-miterlimit="10" stroke-linecap="round"/>
<path d="M2.15314 545.741L1.83442 545.741L1.7813 545.369" stroke="white" stroke-miterlimit="10" stroke-linecap="round"/>
<path d="M1.78131 540.907L1.83444 491.135" stroke="white" stroke-miterlimit="10" stroke-linecap="round" stroke-dasharray="0.99 0.99"/>
<path d="M1.83442 488.904L1.78132 488.532L2.20626 488.532" stroke="white" stroke-miterlimit="10" stroke-linecap="round"/>
<path d="M6.66823 488.532H56.3872" stroke="white" stroke-miterlimit="10" stroke-linecap="round" stroke-dasharray="0.99 0.99"/>
<path d="M58.6181 488.532L59.0431 488.532L58.99 488.904" stroke="white" stroke-miterlimit="10" stroke-linecap="round"/>
<path d="M59.0431 493.313L59.0431 543.138" stroke="white" stroke-miterlimit="10" stroke-linecap="round" stroke-dasharray="0.99 0.99"/>
<path d="M59.0431 545.369L59.0431 545.794L58.6713 545.741" stroke="white" stroke-miterlimit="10" stroke-linecap="round"/>
<path d="M54.2093 545.741L4.38412 545.741" stroke="white" stroke-miterlimit="10" stroke-linecap="round" stroke-dasharray="0.99 0.99"/>
<path d="M59.0431 598.169L59.0431 548.343" stroke="white" stroke-miterlimit="10" stroke-linecap="round" stroke-dasharray="0.99 0.99"/>
<path d="M59.0431 546.112L59.0431 545.794L59.4149 545.741" stroke="white" stroke-miterlimit="10" stroke-linecap="round"/>
<path d="M63.8769 545.741L113.649 545.794" stroke="white" stroke-miterlimit="10" stroke-linecap="round" stroke-dasharray="0.99 0.99"/>
<path d="M115.88 545.794L116.252 545.741L116.252 546.166" stroke="white" stroke-miterlimit="10" stroke-linecap="round"/>
<path d="M1.4095 545.741L1.83442 545.741L1.78133 546.112" stroke="white" stroke-miterlimit="10" stroke-linecap="round"/>
<path d="M61.8766 90.7455C60.3117 92.3104 57.7745 92.3104 56.2095 90.7455C54.6446 89.1806 54.6446 86.6433 56.2095 85.0784C57.7745 83.5135 60.3117 83.5135 61.8766 85.0784C63.4416 86.6433 63.4416 89.1806 61.8766 90.7455Z" fill="#3C3C3B" stroke="white"/>
<path d="M61.8766 33.4837C60.3117 35.0487 57.7745 35.0487 56.2095 33.4837C54.6446 31.9188 54.6446 29.3815 56.2095 27.8166C57.7745 26.2517 60.3117 26.2517 61.8766 27.8166C63.4416 29.3815 63.4416 31.9188 61.8766 33.4837Z" fill="#3C3C3B" stroke="white"/>
<path d="M4.61487 33.4837C3.04994 35.0487 0.512681 35.0487 -1.05225 33.4837C-2.61718 31.9188 -2.61718 29.3815 -1.05225 27.8166C0.512682 26.2517 3.04994 26.2517 4.61487 27.8166C6.1798 29.3815 6.1798 31.9188 4.61487 33.4837Z" fill="#3C3C3B" stroke="white"/>
<path d="M4.61487 90.7455C3.04994 92.3104 0.512681 92.3104 -1.05225 90.7455C-2.61718 89.1806 -2.61718 86.6433 -1.05225 85.0784C0.512682 83.5135 3.04994 83.5135 4.61487 85.0784C6.1798 86.6433 6.1798 89.1806 4.61487 90.7455Z" fill="#3C3C3B" stroke="white"/>
<path d="M119.085 147.954C117.52 149.519 114.983 149.519 113.418 147.954C111.853 146.389 111.853 143.852 113.418 142.287C114.983 140.722 117.52 140.722 119.085 142.287C120.65 143.852 120.65 146.389 119.085 147.954Z" fill="#3C3C3B" stroke="white"/>
<path d="M119.085 90.6924C117.52 92.2573 114.983 92.2573 113.418 90.6924C111.853 89.1275 111.853 86.5902 113.418 85.0253C114.983 83.4604 117.52 83.4604 119.085 85.0253C120.65 86.5902 120.65 89.1275 119.085 90.6924Z" fill="#3C3C3B" stroke="white"/>
<path d="M61.8766 90.7455C60.3117 92.3104 57.7745 92.3104 56.2095 90.7455C54.6446 89.1806 54.6446 86.6433 56.2095 85.0784C57.7745 83.5135 60.3117 83.5135 61.8766 85.0784C63.4416 86.6433 63.4416 89.1806 61.8766 90.7455Z" fill="#3C3C3B" stroke="white"/>
<path d="M61.8235 147.954C60.2586 149.519 57.7213 149.519 56.1564 147.954C54.5915 146.389 54.5915 143.852 56.1564 142.287C57.7213 140.722 60.2586 140.722 61.8235 142.287C63.3885 143.852 63.3885 146.389 61.8235 147.954Z" fill="#3C3C3B" stroke="white"/>
<path d="M176.294 205.163C174.729 206.728 172.192 206.728 170.627 205.163C169.062 203.598 169.062 201.061 170.627 199.496C172.192 197.931 174.729 197.931 176.294 199.496C177.859 201.061 177.859 203.598 176.294 205.163Z" fill="#3C3C3B" stroke="white"/>
<path d="M176.347 147.954C174.782 149.519 172.245 149.519 170.68 147.954C169.115 146.389 169.115 143.852 170.68 142.287C172.245 140.722 174.782 140.722 176.347 142.287C177.912 143.852 177.912 146.389 176.347 147.954Z" fill="#3C3C3B" stroke="white"/>
<path d="M119.085 147.954C117.52 149.519 114.983 149.519 113.418 147.954C111.853 146.389 111.853 143.852 113.418 142.287C114.983 140.722 117.52 140.722 119.085 142.287C120.65 143.852 120.65 146.389 119.085 147.954Z" fill="#3C3C3B" stroke="white"/>
<path d="M119.085 205.216C117.52 206.781 114.983 206.781 113.418 205.216C111.853 203.651 111.853 201.114 113.418 199.549C114.983 197.984 117.52 197.984 119.085 199.549C120.65 201.114 120.65 203.651 119.085 205.216Z" fill="#3C3C3B" stroke="white"/>
<path d="M233.556 262.425C231.991 263.99 229.454 263.99 227.889 262.425C226.324 260.86 226.324 258.322 227.889 256.758C229.454 255.193 231.991 255.193 233.556 256.758C235.121 258.322 235.121 260.86 233.556 262.425Z" fill="#3C3C3B" stroke="white"/>
<path d="M233.556 205.163C231.991 206.728 229.454 206.728 227.889 205.163C226.324 203.598 226.324 201.061 227.889 199.496C229.454 197.931 231.991 197.931 233.556 199.496C235.121 201.061 235.121 203.598 233.556 205.163Z" fill="#3C3C3B" stroke="white"/>
<path d="M176.294 205.163C174.729 206.728 172.192 206.728 170.627 205.163C169.062 203.598 169.062 201.061 170.627 199.496C172.192 197.931 174.729 197.931 176.294 199.496C177.859 201.061 177.859 203.598 176.294 205.163Z" fill="#3C3C3B" stroke="white"/>
<path d="M176.294 262.425C174.729 263.99 172.192 263.99 170.627 262.425C169.062 260.86 169.062 258.322 170.627 256.758C172.192 255.193 174.729 255.193 176.294 256.758C177.859 258.322 177.859 260.86 176.294 262.425Z" fill="#3C3C3B" stroke="white"/>
<path d="M290.818 319.686C289.253 321.251 286.715 321.251 285.15 319.686C283.585 318.121 283.585 315.584 285.15 314.019C286.715 312.454 289.253 312.454 290.818 314.019C292.382 315.584 292.382 318.121 290.818 319.686Z" fill="#3C3C3B" stroke="white"/>
<path d="M290.818 262.425C289.253 263.99 286.715 263.99 285.15 262.425C283.585 260.86 283.585 258.322 285.15 256.758C286.715 255.193 289.253 255.193 290.818 256.758C292.382 258.322 292.382 260.86 290.818 262.425Z" fill="#3C3C3B" stroke="white"/>
<path d="M233.556 262.425C231.991 263.99 229.454 263.99 227.889 262.425C226.324 260.86 226.324 258.322 227.889 256.758C229.454 255.193 231.991 255.193 233.556 256.758C235.121 258.322 235.121 260.86 233.556 262.425Z" fill="#3C3C3B" stroke="white"/>
<path d="M233.556 319.686C231.991 321.251 229.454 321.251 227.889 319.686C226.324 318.121 226.324 315.584 227.889 314.019C229.454 312.454 231.991 312.454 233.556 314.019C235.121 315.584 235.121 318.121 233.556 319.686Z" fill="#3C3C3B" stroke="white"/>
<path d="M348.026 376.895C346.461 378.46 343.924 378.46 342.359 376.895C340.794 375.33 340.794 372.793 342.359 371.228C343.924 369.663 346.461 369.663 348.026 371.228C349.591 372.793 349.591 375.33 348.026 376.895Z" fill="#3C3C3B" stroke="white"/>
<path d="M348.026 319.633C346.461 321.198 343.924 321.198 342.359 319.633C340.794 318.068 340.794 315.531 342.359 313.966C343.924 312.401 346.461 312.401 348.026 313.966C349.591 315.531 349.591 318.068 348.026 319.633Z" fill="#3C3C3B" stroke="white"/>
<path d="M290.818 319.686C289.253 321.251 286.715 321.251 285.15 319.686C283.585 318.121 283.585 315.584 285.15 314.019C286.715 312.454 289.253 312.454 290.818 314.019C292.382 315.584 292.382 318.121 290.818 319.686Z" fill="#3C3C3B" stroke="white"/>
<path d="M290.764 376.895C289.199 378.46 286.662 378.46 285.097 376.895C283.532 375.33 283.532 372.793 285.097 371.228C286.662 369.663 289.199 369.663 290.764 371.228C292.329 372.793 292.329 375.33 290.764 376.895Z" fill="#3C3C3B" stroke="white"/>
<path d="M405.235 434.104C403.67 435.669 401.133 435.669 399.568 434.104C398.003 432.539 398.003 430.002 399.568 428.437C401.133 426.872 403.67 426.872 405.235 428.437C406.8 430.002 406.8 432.539 405.235 434.104Z" fill="#3C3C3B" stroke="white"/>
<path d="M405.288 376.895C403.723 378.46 401.186 378.46 399.621 376.895C398.056 375.33 398.056 372.793 399.621 371.228C401.186 369.663 403.723 369.663 405.288 371.228C406.853 372.793 406.853 375.33 405.288 376.895Z" fill="#3C3C3B" stroke="white"/>
<path d="M348.026 376.895C346.461 378.46 343.924 378.46 342.359 376.895C340.794 375.33 340.794 372.793 342.359 371.228C343.924 369.663 346.461 369.663 348.026 371.228C349.591 372.793 349.591 375.33 348.026 376.895Z" fill="#3C3C3B" stroke="white"/>
<path d="M348.026 434.157C346.461 435.722 343.924 435.722 342.359 434.157C340.794 432.592 340.794 430.055 342.359 428.49C343.924 426.925 346.461 426.925 348.026 428.49C349.591 430.055 349.591 432.592 348.026 434.157Z" fill="#3C3C3B" stroke="white"/>
<path d="M462.497 491.365C460.932 492.93 458.394 492.93 456.829 491.365C455.265 489.801 455.265 487.263 456.829 485.698C458.394 484.133 460.932 484.133 462.497 485.698C464.062 487.263 464.062 489.801 462.497 491.365Z" fill="#3C3C3B" stroke="white"/>
<path d="M462.497 434.104C460.932 435.669 458.394 435.669 456.829 434.104C455.265 432.539 455.265 430.002 456.829 428.437C458.394 426.872 460.932 426.872 462.497 428.437C464.062 430.002 464.062 432.539 462.497 434.104Z" fill="#3C3C3B" stroke="white"/>
<path d="M405.235 434.104C403.67 435.669 401.133 435.669 399.568 434.104C398.003 432.539 398.003 430.002 399.568 428.437C401.133 426.872 403.67 426.872 405.235 428.437C406.8 430.002 406.8 432.539 405.235 434.104Z" fill="#3C3C3B" stroke="white"/>
<path d="M405.235 491.365C403.67 492.93 401.133 492.93 399.568 491.365C398.003 489.801 398.003 487.263 399.568 485.698C401.133 484.133 403.67 484.133 405.235 485.698C406.8 487.263 406.8 489.801 405.235 491.365Z" fill="#3C3C3B" stroke="white"/>
<path d="M519.758 548.627C518.193 550.192 515.656 550.192 514.091 548.627C512.526 547.062 512.526 544.525 514.091 542.96C515.656 541.395 518.193 541.395 519.758 542.96C521.323 544.525 521.323 547.062 519.758 548.627Z" fill="#3C3C3B" stroke="white"/>
<path d="M519.758 491.365C518.193 492.93 515.656 492.93 514.091 491.365C512.526 489.801 512.526 487.263 514.091 485.698C515.656 484.133 518.193 484.133 519.758 485.698C521.323 487.263 521.323 489.801 519.758 491.365Z" fill="#3C3C3B" stroke="white"/>
<path d="M462.497 491.365C460.932 492.93 458.394 492.93 456.829 491.365C455.265 489.801 455.265 487.263 456.829 485.698C458.394 484.133 460.932 484.133 462.497 485.698C464.062 487.263 464.062 489.801 462.497 491.365Z" fill="#3C3C3B" stroke="white"/>
<path d="M462.497 548.627C460.932 550.192 458.394 550.192 456.829 548.627C455.265 547.062 455.265 544.525 456.829 542.96C458.394 541.395 460.932 541.395 462.497 542.96C464.062 544.525 464.062 547.062 462.497 548.627Z" fill="#3C3C3B" stroke="white"/>
<path d="M576.967 548.574C575.402 550.139 572.865 550.139 571.3 548.574C569.735 547.009 569.735 544.472 571.3 542.907C572.865 541.342 575.402 541.342 576.967 542.907C578.532 544.472 578.532 547.009 576.967 548.574Z" fill="#3C3C3B" stroke="white"/>
<path d="M519.758 548.627C518.193 550.192 515.656 550.192 514.091 548.627C512.526 547.062 512.526 544.525 514.091 542.96C515.656 541.395 518.193 541.395 519.758 542.96C521.323 544.525 521.323 547.062 519.758 548.627Z" fill="#3C3C3B" stroke="white"/>
<path d="M4.66798 147.954C3.10305 149.519 0.565797 149.519 -0.999134 147.954C-2.56407 146.389 -2.56406 143.852 -0.999134 142.287C0.565797 140.722 3.10305 140.722 4.66798 142.287C6.23291 143.852 6.23292 146.389 4.66798 147.954Z" fill="#3C3C3B" stroke="white"/>
<path d="M4.61487 90.7455C3.04994 92.3104 0.512681 92.3104 -1.05225 90.7455C-2.61718 89.1806 -2.61718 86.6433 -1.05225 85.0784C0.512682 83.5135 3.04994 83.5135 4.61487 85.0784C6.1798 86.6433 6.1798 89.1806 4.61487 90.7455Z" fill="#3C3C3B" stroke="white"/>
<path d="M61.8766 205.163C60.3117 206.728 57.7745 206.728 56.2095 205.163C54.6446 203.598 54.6446 201.061 56.2095 199.496C57.7745 197.931 60.3117 197.931 61.8766 199.496C63.4416 201.061 63.4416 203.598 61.8766 205.163Z" fill="#3C3C3B" stroke="white"/>
<path d="M61.8235 147.954C60.2586 149.519 57.7213 149.519 56.1564 147.954C54.5915 146.389 54.5915 143.852 56.1564 142.287C57.7213 140.722 60.2586 140.722 61.8235 142.287C63.3885 143.852 63.3885 146.389 61.8235 147.954Z" fill="#3C3C3B" stroke="white"/>
<path d="M4.66798 147.954C3.10305 149.519 0.565797 149.519 -0.999134 147.954C-2.56407 146.389 -2.56406 143.852 -0.999134 142.287C0.565797 140.722 3.10305 140.722 4.66798 142.287C6.23291 143.852 6.23292 146.389 4.66798 147.954Z" fill="#3C3C3B" stroke="white"/>
<path d="M4.61487 205.163C3.04994 206.728 0.512681 206.728 -1.05225 205.163C-2.61718 203.598 -2.61718 201.061 -1.05225 199.496C0.512682 197.931 3.04994 197.931 4.61487 199.496C6.1798 201.061 6.1798 203.598 4.61487 205.163Z" fill="#3C3C3B" stroke="white"/>
<path d="M119.085 262.372C117.52 263.936 114.983 263.936 113.418 262.372C111.853 260.807 111.853 258.269 113.418 256.704C114.983 255.139 117.52 255.139 119.085 256.704C120.65 258.269 120.65 260.807 119.085 262.372Z" fill="#3C3C3B" stroke="white"/>
<path d="M119.085 205.216C117.52 206.781 114.983 206.781 113.418 205.216C111.853 203.651 111.853 201.114 113.418 199.549C114.983 197.984 117.52 197.984 119.085 199.549C120.65 201.114 120.65 203.651 119.085 205.216Z" fill="#3C3C3B" stroke="white"/>
<path d="M61.8766 205.163C60.3117 206.728 57.7745 206.728 56.2095 205.163C54.6446 203.598 54.6446 201.061 56.2095 199.496C57.7745 197.931 60.3117 197.931 61.8766 199.496C63.4416 201.061 63.4416 203.598 61.8766 205.163Z" fill="#3C3C3B" stroke="white"/>
<path d="M61.8766 262.425C60.3117 263.99 57.7745 263.99 56.2095 262.425C54.6446 260.86 54.6446 258.322 56.2095 256.758C57.7745 255.193 60.3117 255.193 61.8766 256.758C63.4416 258.322 63.4416 260.86 61.8766 262.425Z" fill="#3C3C3B" stroke="white"/>
<path d="M176.347 319.633C174.782 321.198 172.245 321.198 170.68 319.633C169.115 318.068 169.115 315.531 170.68 313.966C172.245 312.401 174.782 312.401 176.347 313.966C177.912 315.531 177.912 318.068 176.347 319.633Z" fill="#3C3C3B" stroke="white"/>
<path d="M176.294 262.425C174.729 263.99 172.192 263.99 170.627 262.425C169.062 260.86 169.062 258.322 170.627 256.758C172.192 255.193 174.729 255.193 176.294 256.758C177.859 258.322 177.859 260.86 176.294 262.425Z" fill="#3C3C3B" stroke="white"/>
<path d="M119.085 262.372C117.52 263.936 114.983 263.936 113.418 262.372C111.853 260.807 111.853 258.269 113.418 256.704C114.983 255.139 117.52 255.139 119.085 256.704C120.65 258.269 120.65 260.807 119.085 262.372Z" fill="#3C3C3B" stroke="white"/>
<path d="M119.085 319.633C117.52 321.198 114.983 321.198 113.418 319.633C111.853 318.068 111.853 315.531 113.418 313.966C114.983 312.401 117.52 312.401 119.085 313.966C120.65 315.531 120.65 318.068 119.085 319.633Z" fill="#3C3C3B" stroke="white"/>
<path d="M233.609 376.895C232.044 378.46 229.507 378.46 227.942 376.895C226.377 375.33 226.377 372.793 227.942 371.228C229.507 369.663 232.044 369.663 233.609 371.228C235.174 372.793 235.174 375.33 233.609 376.895Z" fill="#3C3C3B" stroke="white"/>
<path d="M233.556 319.686C231.991 321.251 229.454 321.251 227.889 319.686C226.324 318.121 226.324 315.584 227.889 314.019C229.454 312.454 231.991 312.454 233.556 314.019C235.121 315.584 235.121 318.121 233.556 319.686Z" fill="#3C3C3B" stroke="white"/>
<path d="M176.347 319.633C174.782 321.198 172.245 321.198 170.68 319.633C169.115 318.068 169.115 315.531 170.68 313.966C172.245 312.401 174.782 312.401 176.347 313.966C177.912 315.531 177.912 318.068 176.347 319.633Z" fill="#3C3C3B" stroke="white"/>
<path d="M176.347 376.895C174.782 378.46 172.245 378.46 170.68 376.895C169.115 375.33 169.115 372.793 170.68 371.228C172.245 369.663 174.782 369.663 176.347 371.228C177.912 372.793 177.912 375.33 176.347 376.895Z" fill="#3C3C3B" stroke="white"/>
<path d="M290.818 434.104C289.253 435.669 286.715 435.669 285.15 434.104C283.585 432.539 283.585 430.002 285.15 428.437C286.715 426.872 289.253 426.872 290.818 428.437C292.382 430.002 292.382 432.539 290.818 434.104Z" fill="#3C3C3B" stroke="white"/>
<path d="M290.764 376.895C289.199 378.46 286.662 378.46 285.097 376.895C283.532 375.33 283.532 372.793 285.097 371.228C286.662 369.663 289.199 369.663 290.764 371.228C292.329 372.793 292.329 375.33 290.764 376.895Z" fill="#3C3C3B" stroke="white"/>
<path d="M233.609 376.895C232.044 378.46 229.507 378.46 227.942 376.895C226.377 375.33 226.377 372.793 227.942 371.228C229.507 369.663 232.044 369.663 233.609 371.228C235.174 372.793 235.174 375.33 233.609 376.895Z" fill="#3C3C3B" stroke="white"/>
<path d="M233.556 434.104C231.991 435.669 229.454 435.669 227.889 434.104C226.324 432.539 226.324 430.002 227.889 428.437C229.454 426.872 231.991 426.872 233.556 428.437C235.121 430.002 235.121 432.539 233.556 434.104Z" fill="#3C3C3B" stroke="white"/>
<path d="M348.026 491.312C346.461 492.877 343.924 492.877 342.359 491.312C340.794 489.747 340.794 487.21 342.359 485.645C343.924 484.08 346.461 484.08 348.026 485.645C349.591 487.21 349.591 489.747 348.026 491.312Z" fill="#3C3C3B" stroke="white"/>
<path d="M348.026 434.157C346.461 435.722 343.924 435.722 342.359 434.157C340.794 432.592 340.794 430.055 342.359 428.49C343.924 426.925 346.461 426.925 348.026 428.49C349.591 430.055 349.591 432.592 348.026 434.157Z" fill="#3C3C3B" stroke="white"/>
<path d="M290.818 434.104C289.253 435.669 286.715 435.669 285.15 434.104C283.585 432.539 283.585 430.002 285.15 428.437C286.715 426.872 289.253 426.872 290.818 428.437C292.382 430.002 292.382 432.539 290.818 434.104Z" fill="#3C3C3B" stroke="white"/>
<path d="M290.818 491.366C289.253 492.93 286.715 492.93 285.15 491.366C283.586 489.801 283.586 487.263 285.15 485.698C286.715 484.134 289.253 484.134 290.818 485.698C292.382 487.263 292.382 489.801 290.818 491.366Z" fill="#3C3C3B" stroke="white"/>
<path d="M405.288 548.574C403.723 550.139 401.186 550.139 399.621 548.574C398.056 547.009 398.056 544.472 399.621 542.907C401.186 541.342 403.723 541.342 405.288 542.907C406.853 544.472 406.853 547.009 405.288 548.574Z" fill="#3C3C3B" stroke="white"/>
<path d="M405.235 491.365C403.67 492.93 401.133 492.93 399.568 491.365C398.003 489.801 398.003 487.263 399.568 485.698C401.133 484.133 403.67 484.133 405.235 485.698C406.8 487.263 406.8 489.801 405.235 491.365Z" fill="#3C3C3B" stroke="white"/>
<path d="M348.026 491.312C346.461 492.877 343.924 492.877 342.359 491.312C340.794 489.747 340.794 487.21 342.359 485.645C343.924 484.08 346.461 484.08 348.026 485.645C349.591 487.21 349.591 489.747 348.026 491.312Z" fill="#3C3C3B" stroke="white"/>
<path d="M348.026 548.574C346.461 550.139 343.924 550.139 342.359 548.574C340.794 547.009 340.794 544.472 342.359 542.907C343.924 541.342 346.461 541.342 348.026 542.907C349.591 544.472 349.591 547.009 348.026 548.574Z" fill="#3C3C3B" stroke="white"/>
<path d="M462.497 548.627C460.932 550.192 458.394 550.192 456.829 548.627C455.265 547.062 455.265 544.525 456.829 542.96C458.394 541.395 460.932 541.395 462.497 542.96C464.062 544.525 464.062 547.062 462.497 548.627Z" fill="#3C3C3B" stroke="white"/>
<path d="M405.288 548.574C403.723 550.139 401.186 550.139 399.621 548.574C398.056 547.009 398.056 544.472 399.621 542.907C401.186 541.342 403.723 541.342 405.288 542.907C406.853 544.472 406.853 547.009 405.288 548.574Z" fill="#3C3C3B" stroke="white"/>
<path d="M4.61487 262.425C3.04994 263.99 0.512681 263.99 -1.05225 262.425C-2.61718 260.86 -2.61718 258.322 -1.05225 256.758C0.512682 255.193 3.04994 255.193 4.61487 256.758C6.1798 258.322 6.1798 260.86 4.61487 262.425Z" fill="#3C3C3B" stroke="white"/>
<path d="M4.61487 205.163C3.04994 206.728 0.512681 206.728 -1.05225 205.163C-2.61718 203.598 -2.61718 201.061 -1.05225 199.496C0.512682 197.931 3.04994 197.931 4.61487 199.496C6.1798 201.061 6.1798 203.598 4.61487 205.163Z" fill="#3C3C3B" stroke="white"/>
<path d="M61.8235 319.633C60.2586 321.198 57.7213 321.198 56.1564 319.633C54.5915 318.068 54.5915 315.531 56.1564 313.966C57.7213 312.401 60.2586 312.401 61.8235 313.966C63.3885 315.531 63.3885 318.068 61.8235 319.633Z" fill="#3C3C3B" stroke="white"/>
<path d="M61.8766 262.425C60.3117 263.99 57.7745 263.99 56.2095 262.425C54.6446 260.86 54.6446 258.322 56.2095 256.758C57.7745 255.193 60.3117 255.193 61.8766 256.758C63.4416 258.322 63.4416 260.86 61.8766 262.425Z" fill="#3C3C3B" stroke="white"/>
<path d="M4.61487 262.425C3.04994 263.99 0.512681 263.99 -1.05225 262.425C-2.61718 260.86 -2.61718 258.322 -1.05225 256.758C0.512682 255.193 3.04994 255.193 4.61487 256.758C6.1798 258.322 6.1798 260.86 4.61487 262.425Z" fill="#3C3C3B" stroke="white"/>
<path d="M4.66798 319.633C3.10305 321.198 0.565797 321.198 -0.999134 319.633C-2.56407 318.068 -2.56406 315.531 -0.999134 313.966C0.565797 312.401 3.10305 312.401 4.66798 313.966C6.23291 315.531 6.23292 318.068 4.66798 319.633Z" fill="#3C3C3B" stroke="white"/>
<path d="M119.085 376.895C117.52 378.46 114.983 378.46 113.418 376.895C111.853 375.33 111.853 372.793 113.418 371.228C114.983 369.663 117.52 369.663 119.085 371.228C120.65 372.793 120.65 375.33 119.085 376.895Z" fill="#3C3C3B" stroke="white"/>
<path d="M119.085 319.633C117.52 321.198 114.983 321.198 113.418 319.633C111.853 318.068 111.853 315.531 113.418 313.966C114.983 312.401 117.52 312.401 119.085 313.966C120.65 315.531 120.65 318.068 119.085 319.633Z" fill="#3C3C3B" stroke="white"/>
<path d="M61.8235 319.633C60.2586 321.198 57.7213 321.198 56.1564 319.633C54.5915 318.068 54.5915 315.531 56.1564 313.966C57.7213 312.401 60.2586 312.401 61.8235 313.966C63.3885 315.531 63.3885 318.068 61.8235 319.633Z" fill="#3C3C3B" stroke="white"/>
<path d="M61.8766 376.842C60.3117 378.407 57.7744 378.407 56.2095 376.842C54.6446 375.277 54.6446 372.74 56.2095 371.175C57.7744 369.61 60.3117 369.61 61.8766 371.175C63.4416 372.74 63.4416 375.277 61.8766 376.842Z" fill="#3C3C3B" stroke="white"/>
<path d="M176.347 434.157C174.782 435.722 172.245 435.722 170.68 434.157C169.115 432.592 169.115 430.055 170.68 428.49C172.245 426.925 174.782 426.925 176.347 428.49C177.912 430.055 177.912 432.592 176.347 434.157Z" fill="#3C3C3B" stroke="white"/>
<path d="M176.347 376.895C174.782 378.46 172.245 378.46 170.68 376.895C169.115 375.33 169.115 372.793 170.68 371.228C172.245 369.663 174.782 369.663 176.347 371.228C177.912 372.793 177.912 375.33 176.347 376.895Z" fill="#3C3C3B" stroke="white"/>
<path d="M119.085 376.895C117.52 378.46 114.983 378.46 113.418 376.895C111.853 375.33 111.853 372.793 113.418 371.228C114.983 369.663 117.52 369.663 119.085 371.228C120.65 372.793 120.65 375.33 119.085 376.895Z" fill="#3C3C3B" stroke="white"/>
<path d="M119.138 434.104C117.573 435.669 115.036 435.669 113.471 434.104C111.906 432.539 111.906 430.002 113.471 428.437C115.036 426.872 117.573 426.872 119.138 428.437C120.703 430.002 120.703 432.539 119.138 434.104Z" fill="#3C3C3B" stroke="white"/>
<path d="M233.556 491.365C231.991 492.93 229.454 492.93 227.889 491.365C226.324 489.801 226.324 487.263 227.889 485.698C229.454 484.133 231.991 484.133 233.556 485.698C235.121 487.263 235.121 489.801 233.556 491.365Z" fill="#3C3C3B" stroke="white"/>
<path d="M233.556 434.104C231.991 435.669 229.454 435.669 227.889 434.104C226.324 432.539 226.324 430.002 227.889 428.437C229.454 426.872 231.991 426.872 233.556 428.437C235.121 430.002 235.121 432.539 233.556 434.104Z" fill="#3C3C3B" stroke="white"/>
<path d="M176.347 434.157C174.782 435.722 172.245 435.722 170.68 434.157C169.115 432.592 169.115 430.055 170.68 428.49C172.245 426.925 174.782 426.925 176.347 428.49C177.912 430.055 177.912 432.592 176.347 434.157Z" fill="#3C3C3B" stroke="white"/>
<path d="M176.347 491.312C174.782 492.877 172.245 492.877 170.68 491.312C169.115 489.747 169.115 487.21 170.68 485.645C172.245 484.08 174.782 484.08 176.347 485.645C177.912 487.21 177.912 489.747 176.347 491.312Z" fill="#3C3C3B" stroke="white"/>
<path d="M290.764 548.574C289.199 550.139 286.662 550.139 285.097 548.574C283.532 547.009 283.532 544.472 285.097 542.907C286.662 541.342 289.199 541.342 290.764 542.907C292.329 544.472 292.329 547.009 290.764 548.574Z" fill="#3C3C3B" stroke="white"/>
<path d="M290.818 491.366C289.253 492.93 286.715 492.93 285.15 491.366C283.586 489.801 283.586 487.263 285.15 485.698C286.715 484.134 289.253 484.134 290.818 485.698C292.382 487.263 292.382 489.801 290.818 491.366Z" fill="#3C3C3B" stroke="white"/>
<path d="M233.556 491.365C231.991 492.93 229.454 492.93 227.889 491.365C226.324 489.801 226.324 487.263 227.889 485.698C229.454 484.133 231.991 484.133 233.556 485.698C235.121 487.263 235.121 489.801 233.556 491.365Z" fill="#3C3C3B" stroke="white"/>
<path d="M233.609 548.574C232.044 550.139 229.507 550.139 227.942 548.574C226.377 547.009 226.377 544.472 227.942 542.907C229.507 541.342 232.044 541.342 233.609 542.907C235.174 544.472 235.174 547.009 233.609 548.574Z" fill="#3C3C3B" stroke="white"/>
<path d="M348.026 548.574C346.461 550.139 343.924 550.139 342.359 548.574C340.794 547.009 340.794 544.472 342.359 542.907C343.924 541.342 346.461 541.342 348.026 542.907C349.591 544.472 349.591 547.009 348.026 548.574Z" fill="#3C3C3B" stroke="white"/>
<path d="M290.764 548.574C289.199 550.139 286.662 550.139 285.097 548.574C283.532 547.009 283.532 544.472 285.097 542.907C286.662 541.342 289.199 541.342 290.764 542.907C292.329 544.472 292.329 547.009 290.764 548.574Z" fill="#3C3C3B" stroke="white"/>
<path d="M4.61486 376.842C3.04993 378.407 0.51267 378.407 -1.05226 376.842C-2.61719 375.277 -2.61719 372.74 -1.05226 371.175C0.51267 369.61 3.04993 369.61 4.61486 371.175C6.17979 372.74 6.17979 375.277 4.61486 376.842Z" fill="#3C3C3B" stroke="white"/>
<path d="M4.66798 319.633C3.10305 321.198 0.565797 321.198 -0.999134 319.633C-2.56407 318.068 -2.56406 315.531 -0.999134 313.966C0.565797 312.401 3.10305 312.401 4.66798 313.966C6.23291 315.531 6.23292 318.068 4.66798 319.633Z" fill="#3C3C3B" stroke="white"/>
<path d="M61.8766 434.104C60.3117 435.669 57.7744 435.669 56.2095 434.104C54.6446 432.539 54.6446 430.002 56.2095 428.437C57.7744 426.872 60.3117 426.872 61.8766 428.437C63.4416 430.002 63.4416 432.539 61.8766 434.104Z" fill="#3C3C3B" stroke="white"/>
<path d="M61.8766 376.842C60.3117 378.407 57.7744 378.407 56.2095 376.842C54.6446 375.277 54.6446 372.74 56.2095 371.175C57.7744 369.61 60.3117 369.61 61.8766 371.175C63.4416 372.74 63.4416 375.277 61.8766 376.842Z" fill="#3C3C3B" stroke="white"/>
<path d="M4.61486 376.842C3.04993 378.407 0.51267 378.407 -1.05226 376.842C-2.61719 375.277 -2.61719 372.74 -1.05226 371.175C0.51267 369.61 3.04993 369.61 4.61486 371.175C6.17979 372.74 6.17979 375.277 4.61486 376.842Z" fill="#3C3C3B" stroke="white"/>
<path d="M4.61486 434.104C3.04993 435.669 0.51267 435.669 -1.05226 434.104C-2.61719 432.539 -2.61719 430.002 -1.05226 428.437C0.51267 426.872 3.04993 426.872 4.61486 428.437C6.17979 430.002 6.17979 432.539 4.61486 434.104Z" fill="#3C3C3B" stroke="white"/>
<path d="M119.138 491.365C117.573 492.93 115.036 492.93 113.471 491.365C111.906 489.801 111.906 487.263 113.471 485.698C115.036 484.133 117.573 484.133 119.138 485.698C120.703 487.263 120.703 489.801 119.138 491.365Z" fill="#3C3C3B" stroke="white"/>
<path d="M119.138 434.104C117.573 435.669 115.036 435.669 113.471 434.104C111.906 432.539 111.906 430.002 113.471 428.437C115.036 426.872 117.573 426.872 119.138 428.437C120.703 430.002 120.703 432.539 119.138 434.104Z" fill="#3C3C3B" stroke="white"/>
<path d="M61.8766 434.104C60.3117 435.669 57.7744 435.669 56.2095 434.104C54.6446 432.539 54.6446 430.002 56.2095 428.437C57.7744 426.872 60.3117 426.872 61.8766 428.437C63.4416 430.002 63.4416 432.539 61.8766 434.104Z" fill="#3C3C3B" stroke="white"/>
<path d="M61.8766 491.365C60.3117 492.93 57.7744 492.93 56.2095 491.365C54.6446 489.801 54.6446 487.263 56.2095 485.698C57.7744 484.133 60.3117 484.133 61.8766 485.698C63.4416 487.263 63.4416 489.801 61.8766 491.365Z" fill="#3C3C3B" stroke="white"/>
<path d="M176.347 548.574C174.782 550.139 172.245 550.139 170.68 548.574C169.115 547.009 169.115 544.472 170.68 542.907C172.245 541.342 174.782 541.342 176.347 542.907C177.912 544.472 177.912 547.009 176.347 548.574Z" fill="#3C3C3B" stroke="white"/>
<path d="M176.347 491.312C174.782 492.877 172.245 492.877 170.68 491.312C169.115 489.747 169.115 487.21 170.68 485.645C172.245 484.08 174.782 484.08 176.347 485.645C177.912 487.21 177.912 489.747 176.347 491.312Z" fill="#3C3C3B" stroke="white"/>
<path d="M119.138 491.365C117.573 492.93 115.036 492.93 113.471 491.365C111.906 489.801 111.906 487.263 113.471 485.698C115.036 484.133 117.573 484.133 119.138 485.698C120.703 487.263 120.703 489.801 119.138 491.365Z" fill="#3C3C3B" stroke="white"/>
<path d="M119.085 548.574C117.52 550.139 114.983 550.139 113.418 548.574C111.853 547.009 111.853 544.472 113.418 542.907C114.983 541.342 117.52 541.342 119.085 542.907C120.65 544.472 120.65 547.009 119.085 548.574Z" fill="#3C3C3B" stroke="white"/>
<path d="M233.609 548.574C232.044 550.139 229.507 550.139 227.942 548.574C226.377 547.009 226.377 544.472 227.942 542.907C229.507 541.342 232.044 541.342 233.609 542.907C235.174 544.472 235.174 547.009 233.609 548.574Z" fill="#3C3C3B" stroke="white"/>
<path d="M176.347 548.574C174.782 550.139 172.245 550.139 170.68 548.574C169.115 547.009 169.115 544.472 170.68 542.907C172.245 541.342 174.782 541.342 176.347 542.907C177.912 544.472 177.912 547.009 176.347 548.574Z" fill="#3C3C3B" stroke="white"/>
<path d="M4.61488 491.365C3.04995 492.93 0.512691 492.93 -1.05224 491.365C-2.61717 489.801 -2.61717 487.263 -1.05224 485.698C0.512691 484.133 3.04995 484.133 4.61488 485.698C6.17981 487.263 6.17981 489.801 4.61488 491.365Z" fill="#3C3C3B" stroke="white"/>
<path d="M4.61486 434.104C3.04993 435.669 0.51267 435.669 -1.05226 434.104C-2.61719 432.539 -2.61719 430.002 -1.05226 428.437C0.51267 426.872 3.04993 426.872 4.61486 428.437C6.17979 430.002 6.17979 432.539 4.61486 434.104Z" fill="#3C3C3B" stroke="white"/>
<path d="M61.8767 548.627C60.3117 550.192 57.7745 550.192 56.2095 548.627C54.6446 547.062 54.6446 544.525 56.2095 542.96C57.7745 541.395 60.3117 541.395 61.8767 542.96C63.4416 544.525 63.4416 547.062 61.8767 548.627Z" fill="#3C3C3B" stroke="white"/>
<path d="M61.8766 491.365C60.3117 492.93 57.7744 492.93 56.2095 491.365C54.6446 489.801 54.6446 487.263 56.2095 485.698C57.7744 484.133 60.3117 484.133 61.8766 485.698C63.4416 487.263 63.4416 489.801 61.8766 491.365Z" fill="#3C3C3B" stroke="white"/>
<path d="M4.61488 491.365C3.04995 492.93 0.512691 492.93 -1.05224 491.365C-2.61717 489.801 -2.61717 487.263 -1.05224 485.698C0.512691 484.133 3.04995 484.133 4.61488 485.698C6.17981 487.263 6.17981 489.801 4.61488 491.365Z" fill="#3C3C3B" stroke="white"/>
<path d="M4.66798 548.574C3.10305 550.139 0.565797 550.139 -0.999134 548.574C-2.56407 547.009 -2.56406 544.472 -0.999134 542.907C0.565797 541.342 3.10305 541.342 4.66798 542.907C6.23291 544.472 6.23292 547.009 4.66798 548.574Z" fill="#3C3C3B" stroke="white"/>
<path d="M119.085 548.574C117.52 550.139 114.983 550.139 113.418 548.574C111.853 547.009 111.853 544.472 113.418 542.907C114.983 541.342 117.52 541.342 119.085 542.907C120.65 544.472 120.65 547.009 119.085 548.574Z" fill="#3C3C3B" stroke="white"/>
<path d="M61.8767 548.627C60.3117 550.192 57.7745 550.192 56.2095 548.627C54.6446 547.062 54.6446 544.525 56.2095 542.96C57.7745 541.395 60.3117 541.395 61.8767 542.96C63.4416 544.525 63.4416 547.062 61.8767 548.627Z" fill="#3C3C3B" stroke="white"/>
<path d="M4.66798 548.574C3.10305 550.139 0.565797 550.139 -0.999134 548.574C-2.56407 547.009 -2.56406 544.472 -0.999134 542.907C0.565797 541.342 3.10305 541.342 4.66798 542.907C6.23291 544.472 6.23292 547.009 4.66798 548.574Z" fill="#3C3C3B" stroke="white"/>
</g>
<defs>
<clipPath id="clip0_4_1895">
<rect width="1051.69" height="736.185" fill="white" transform="translate(30.4122 0.956909) rotate(45)"/>
</clipPath>
</defs>
</svg>
